Simulation
nRows=28
nColumns=15
endheader
time  TH_x TH_y TH_z SC_y  SC_z  SC_x  AC_y  AC_z  AC_x  GH_y  GH_z  GH_yy  EL_x  PS_y
8.6175  0.000000  0.000000  0.000000  -39.607713433809806  -3.9832553002306543  -19.092989149644623  43.279221303909985  16.195156297833122  8.731250482756735  24.306077315300815  9.354281027013409  -7.65213739353848  20.575610634213003  120.000000
8.67495  0.000000  0.000000  0.000000  -39.84697840644036  -3.4773481234277233  -19.15299624048749  42.92223692140558  16.036453144425572  8.881469249611824  27.39931007196936  9.701598566676282  -10.305717732287151  20.50404573218184  120.000000
8.7324  0.000000  0.000000  0.000000  -40.064854152819755  -3.0066911845776327  -19.159155108186063  42.78435784223379  15.823108791101282  9.103497592442356  31.68309631226834  10.304499021494285  -14.025759467555227  20.612393340812343  120.000000
8.78985  0.000000  0.000000  0.000000  -40.305321157098156  -2.5746612239235986  -19.082836965554996  42.9056767487549  15.56948712764584  9.398730592749041  36.92314279573167  11.246173159697447  -18.641057906106237  20.880904722116615  120.000000
8.8473  0.000000  0.000000  0.000000  -40.62153712728235  -2.1600886732688385  -18.894964307676542  43.29047898179959  15.299061534826729  9.757358781919217  42.63191555772628  12.592678847123796  -23.76943806048295  21.24246543588424  120.000000
8.90475  0.000000  0.000000  0.000000  -41.052524003500004  -1.726968754507457  -18.563647239377428  43.921997221801035  15.036673600646251  10.164573798995361  48.322542431468065  14.37376296987704  -29.044680605660545  21.617699943035245  120.000000
8.9622  0.000000  0.000000  0.000000  -41.60525669126585  -1.2347028641310154  -18.050638216890786  44.77268043099245  14.803872269004415  10.607503679374764  53.68241708634333  16.57541081236439  -34.26652482180102  21.943943797406206  120.000000
9.01965  0.000000  0.000000  0.000000  -42.25248070674692  -0.6457782108722105  -17.307779974521747  45.807824792889555  14.620760492616135  11.078501322551258  58.58756366782343  19.14639593843981  -39.400853976818794  22.188080290508434  120.000000
9.0771  0.000000  0.000000  0.000000  -42.94057224487258  0.07728217075921283  -16.276640336828397  46.99096395027702  14.512331822098524  11.571335057718283  63.02459277409442  22.0166602789944  -44.49761828410748  22.342457506222754  120.000000
9.13455  0.000000  0.000000  0.000000  -43.61023746749225  0.9731001118538595  -14.891354530240223  48.28681560844556  14.509936143633455  12.078397386960626  67.00758254115772  25.11648961066435  -49.605791969065315  22.411868357203847  120.000000
9.192  0.000000  0.000000  0.000000  -44.221736789431986  2.075993160166936  -13.083952796384297  49.65378535804934  14.640658717289972  12.598552115414686  70.53395298834849  28.383425723701816  -54.725658444022145  22.399645434414968  120.000000
9.24945  0.000000  0.000000  0.000000  -44.77638789483454  3.408016287983422  -10.791710739290384  51.03450144129021  14.91034760021943  13.148331071820827  73.58506710419653  31.75836756632322  -59.80452152591853  22.30107630413604  120.000000
9.3069  0.000000  0.000000  0.000000  -45.318932683417714  4.971409795924745  -7.966773863378774  52.358671693330386  15.294139746730218  13.762882606547496  76.14532367312162  35.17794247909632  -64.75579931082682  22.103769191542558  120.000000
9.36435  0.000000  0.000000  0.000000  -45.92534808431495  6.7420028605081175  -4.5846261387710525  53.558438153409625  15.739645154144126  14.484118877896922  78.21938318219702  38.57201800260505  -69.48212359576493  21.797514586610436  120.000000
9.421800000000001  0.000000  0.000000  0.000000  -46.68427275671268  8.661601297729426  -0.6522799522509587  54.58463386803047  16.176344043231087  15.343007343556595  79.83458697694  41.864692267103045  -73.89124470020813  21.385123918110313  120.000000
9.47925  0.000000  0.000000  0.000000  -47.68138697570582  10.630116285347148  3.783441716960517  55.41004697722001  16.524468414373924  16.346628943244156  81.03198784866666  44.975024599601674  -77.90246302484863  20.89000545481803  120.000000
9.5367  0.000000  0.000000  0.000000  -48.980696637638744  12.509618394858817  8.628110314215773  56.02654578133327  16.705273688908797  17.47156297419734  81.85685082237525  47.819422453990356  -81.44813340484856  20.351713940872585  120.000000
9.59415  0.000000  0.000000  0.000000  -50.59770434415599  14.147909636682286  13.732798332589534  56.44302473470112  16.6547876675132  18.662529133985245  82.35293117098527  50.31946248420788  -84.47374591569964  19.81455921274847  120.000000
9.6516  0.000000  0.000000  0.000000  -52.47107979374085  15.422873542091223  18.898099967692712  56.6923890696751  16.345528643964418  19.83565785030801  82.56581131119296  52.41931893078292  -86.94168650183893  19.318542679416236  120.000000
9.70905  0.000000  0.000000  0.000000  -54.46170206166737  16.28719814495808  23.889122520685927  56.830439781423074  15.796574808554956  20.89274419825354  82.54875345650989  54.09818560047047  -88.83624375509427  18.894174863287777  120.000000
9.7665  0.000000  0.000000  0.000000  -56.385840681198864  16.768502836711672  28.460903136218757  56.914439323498996  15.060361646436416  21.74347376607595  82.36610154382588  55.36364452813564  -90.16937897861871  18.56175309257896  120.000000
9.82395  0.000000  0.000000  0.000000  -58.05359730156064  16.958277139833218  32.39027868959437  56.9873510507366  14.210050391613184  22.316921489634055  82.08891164504966  56.23898419287553  -90.98259009137128  18.33209421532117  120.000000
9.8814  0.000000  0.000000  0.000000  -59.30485429951284  16.97707212405764  35.494828327760544  57.07191017018443  13.324499471026286  22.567052891131492  81.78665162534783  56.75383324185873  -91.3412131174677  18.20804090746173  120.000000
9.93885  0.000000  0.000000  0.000000  -60.02012856175684  16.94002584431092  37.63799813209957  57.17064285018979  12.475604779235862  22.47831202043217  81.51412245553217  56.9336619638117  -91.32087002193379  18.179889345502435  120.000000
9.9963  0.000000  0.000000  0.000000  -60.128299719833336  16.931042698171243  38.72624996985184  57.27866565093814  11.717188783418633  22.063964502101186  81.29527236998632  56.79799591575335  -90.98682173845152  18.226441916481786  120.000000
10.05375  0.000000  0.000000  0.000000  -59.60580141718659  16.988738219074094  38.7055104614669  57.392610057112854  11.07722349644259  21.36462061192399  81.10922927148472  56.357167532361466  -90.37097918466975  18.31911477290061  120.000000
10.1112  0.000000  0.000000  0.000000  -58.478627366429066  17.097023347721137  37.56559982873559  57.51518572398452  10.55735330622107  20.444807526227223  80.88810117470287  55.61130011358218  -89.45271099945161  18.42886944524944  120.000000
10.16865  0.000000  0.000000  0.000000  -56.82134075437215  17.181628855468563  35.35330976772635  57.65242012339045  10.136923185190462  19.38952507335594  80.53011810221055  54.54883874573895  -88.15046211756346  18.529821596380337  120.000000
